<?xml version="1.0" encoding="UTF-8" standalone="no"?>
<!-- Created with Inkscape (http://www.inkscape.org/) -->

<svg
   xmlns:dc="http://purl.org/dc/elements/1.1/"
   xmlns:cc="http://creativecommons.org/ns#"
   xmlns:rdf="http://www.w3.org/1999/02/22-rdf-syntax-ns#"
   xmlns:svg="http://www.w3.org/2000/svg"
   xmlns="http://www.w3.org/2000/svg"
   xmlns:xlink="http://www.w3.org/1999/xlink"
   xmlns:sodipodi="http://sodipodi.sourceforge.net/DTD/sodipodi-0.dtd"
   xmlns:inkscape="http://www.inkscape.org/namespaces/inkscape"
   id="svg3089"
   version="1.1"
   inkscape:version="0.48.5 r10040"
   width="300"
   height="300"
   sodipodi:docname="CuteReport_Logo_bw.svg"
   enable-background="new"
   inkscape:export-filename="/home/alex/Documents/CuteReport_style/CuteReport_Logo_blueBG_300x300_rect.png"
   inkscape:export-xdpi="90"
   inkscape:export-ydpi="90">
  <metadata
     id="metadata3095">
    <rdf:RDF>
      <cc:Work
         rdf:about="">
        <dc:format>image/svg+xml</dc:format>
        <dc:type
           rdf:resource="http://purl.org/dc/dcmitype/StillImage" />
        <dc:title></dc:title>
      </cc:Work>
    </rdf:RDF>
  </metadata>
  <defs
     id="defs3093">
    <linearGradient
       id="linearGradient7150">
      <stop
         style="stop-color:#f0e4c5;stop-opacity:1;"
         offset="0"
         id="stop7152" />
      <stop
         style="stop-color:#d6c28f;stop-opacity:1;"
         offset="1"
         id="stop7154" />
    </linearGradient>
    <filter
       inkscape:label="Cross-smooth"
       inkscape:menu="Blurs"
       inkscape:menu-tooltip="Blur inner borders and intersections"
       color-interpolation-filters="sRGB"
       id="filter6426">
      <feGaussianBlur
         stdDeviation="3"
         id="feGaussianBlur6428" />
      <feColorMatrix
         result="fbSourceGraphic"
         values="1 0 0 0 0 0 1 0 0 0 0 0 1 0 0 0 0 0 6 -2.5 "
         id="feColorMatrix6430" />
    </filter>
    <filter
       inkscape:menu-tooltip="In and out glow with a possible offset and colorizable flood"
       inkscape:menu="Shadows and Glows"
       inkscape:label="Cutout Glow"
       color-interpolation-filters="sRGB"
       id="filter6478">
      <feOffset
         dy="3"
         dx="3"
         id="feOffset6480" />
      <feGaussianBlur
         result="result8"
         stdDeviation="3"
         id="feGaussianBlur6482" />
      <feFlood
         flood-color="rgb(0,0,0)"
         flood-opacity="1"
         in="result8"
         result="result10"
         id="feFlood6484" />
      <feComposite
         in2="SourceGraphic"
         operator="in"
         in="result10"
         result="result9"
         id="feComposite6486" />
      <feBlend
         mode="normal"
         in2="result9"
         in="result8"
         id="feBlend6488" />
    </filter>
    <filter
       inkscape:collect="always"
       id="filter7142">
      <feGaussianBlur
         inkscape:collect="always"
         stdDeviation="3.4564337"
         id="feGaussianBlur7144" />
    </filter>
    <linearGradient
       inkscape:collect="always"
       xlink:href="#linearGradient7150"
       id="linearGradient7156"
       x1="141.28943"
       y1="49"
       x2="128.52448"
       y2="49"
       gradientUnits="userSpaceOnUse" />
  </defs>
  <sodipodi:namedview
     pagecolor="#ffffff"
     bordercolor="#666666"
     borderopacity="1"
     objecttolerance="10"
     gridtolerance="10"
     guidetolerance="10"
     inkscape:pageopacity="0"
     inkscape:pageshadow="2"
     inkscape:window-width="1886"
     inkscape:window-height="992"
     id="namedview3091"
     showgrid="false"
     inkscape:zoom="2"
     inkscape:cx="60.674195"
     inkscape:cy="168.65557"
     inkscape:window-x="0"
     inkscape:window-y="35"
     inkscape:window-maximized="0"
     inkscape:current-layer="g7165" />
  <g
     inkscape:groupmode="layer"
     id="layer12"
     inkscape:label="background rounded"
     style="display:inline">
    <rect
       style="fill:#66b5cc;fill-opacity:1;fill-rule:nonzero;stroke:none"
       id="rect7163"
       width="299.5"
       height="300"
       x="0.5"
       y="9.4998092e-07"
       ry="48.5" />
  </g>
  <g
     style="display:none"
     inkscape:label="background rect"
     id="g7165"
     inkscape:groupmode="layer">
    <rect
       ry="0"
       y="9.4998092e-07"
       x="0.5"
       height="300"
       width="299.5"
       id="rect7167"
       style="fill:#66b5cc;fill-opacity:1;fill-rule:nonzero;stroke:none"
       rx="0" />
  </g>
  <g
     inkscape:label="logo rounded"
     id="g6422"
     inkscape:groupmode="layer"
     style="display:none">
    <path
       inkscape:connector-curvature="0"
       id="path6424"
       d="m 145.60365,22.224246 c -4.56071,-4.89e-4 -9.04334,0.134923 -11.46875,0.375 -43.2363,4.279706 -80.89268,30.210123 -100.15624,68.96875 -6.37233,12.821224 -10.19917,25.395784 -12.25001,40.312494 -0.9019,6.5603 -0.90092,25.05729 0,30.96875 2.50106,16.41081 6.21225,28.37756 12.81251,41.34376 14.27508,28.04344 39.25906,50.10752 68.78125,60.78125 10.6616,3.8547 24.08782,6.67315 34.68749,7.25 3.38825,0.1844 109.90135,-0.1675 123.46875,-0.40625 l 13.46875,-0.21875 -20.375,-18.8125 C 243.35974,242.45162 231.59108,231.60873 228.41615,228.693 l -5.78125,-5.28125 -39.9375,-0.21875 c -41.06459,-0.20029 -44.93071,-0.33187 -51.9375,-1.75 -7.17979,-1.45315 -17.30008,-5.39726 -23.81249,-9.3125 -12.99807,-7.81439 -24.0405,-20.44335 -30.28125,-34.625 -2.06763,-4.69852 -3.90628,-10.43325 -5,-15.56251 -1.273,-5.96996 -1.66556,-20.03183 -0.71875,-26.25 4.58643,-30.12169 25.61211,-54.36044 54.31249,-62.593744 7.09314,-2.034816 11.34622,-2.57459 20.21875,-2.59375 7.75545,-0.01675 11.86589,0.318558 15.8125,1.3125 1.70837,0.430248 -0.78902,2.738287 21.375,-19.78125 9.19889,-9.346439 16.71875,-17.238724 16.71875,-17.53125 0,-0.658263 -7.06015,-3.704747 -13.65625,-5.90625 -9.33245,-3.114788 -19.01892,-5.179895 -28.21875,-6 -2.69935,-0.240621 -7.34554,-0.374511 -11.90625,-0.375 z m 78.40625,27.3125 c -0.44734,0 -16.12918,15.300852 -47.34375,46.21875 l -15.21875,15.093754 0.0312,29.37499 c 0.0377,31.75398 0.36308,66.92855 0.625,67.75001 0.13326,0.41796 0.90977,0.48095 4.40625,0.28125 15.94459,-0.91066 31.81221,-6.10553 44.6875,-14.59375 21.08231,-13.89882 35.33345,-35.31501 40.3125,-60.62501 1.53799,-7.81867 1.53577,-25.6791 0,-32.84374 -2.9095,-13.573533 -7.07917,-24.035521 -13.4687,-33.781254 -4.3742,-6.671835 -12.85079,-16.875 -14.03125,-16.875 z"
       style="fill:#000000;display:inline;filter:url(#filter6426)" />
  </g>
  <g
     style="display:inline"
     inkscape:label="shadow"
     id="g6514"
     inkscape:groupmode="layer">
    <path
       inkscape:connector-curvature="0"
       id="path6516"
       d="m 149.60365,28.724246 c -4.56071,-4.89e-4 -9.04334,0.134923 -11.46875,0.375 -43.236301,4.279706 -80.892681,30.210123 -100.156241,68.96875 -6.37233,12.821224 -10.19917,25.395784 -12.25001,40.312494 -0.9019,6.5603 -0.90092,25.05729 0,30.96875 2.50106,16.41081 6.21225,28.37756 12.81251,41.34376 14.27508,28.04344 39.25906,50.10752 68.781251,60.78125 10.6616,3.8547 24.08782,6.67315 34.68749,7.25 3.38825,0.1844 109.90135,-0.1675 123.46875,-0.40625 l 13.46875,-0.21875 -20.375,-18.8125 C 247.35974,248.95162 235.59108,238.10873 232.41615,235.193 l -5.78125,-5.28125 -39.9375,-0.21875 c -41.06459,-0.20029 -44.93071,-0.33187 -51.9375,-1.75 -7.17979,-1.45315 -17.30008,-5.39726 -23.81249,-9.3125 -12.998071,-7.81439 -24.040501,-20.44335 -30.281251,-34.625 -2.06763,-4.69852 -3.90628,-10.43325 -5,-15.56251 -1.273,-5.96996 -1.66556,-20.03183 -0.71875,-26.25 4.58643,-30.12169 25.612111,-54.36044 54.312491,-62.593744 7.09314,-2.034816 11.34622,-2.57459 20.21875,-2.59375 7.75545,-0.01675 11.86589,0.318558 15.8125,1.3125 1.70837,0.430248 -0.78902,2.738287 21.375,-19.78125 9.19889,-9.346439 16.71875,-17.238724 16.71875,-17.53125 0,-0.658263 -7.06015,-3.704747 -13.65625,-5.90625 -9.33245,-3.114788 -19.01892,-5.179895 -28.21875,-6 -2.69935,-0.240621 -7.34554,-0.374511 -11.90625,-0.375 z m 78.40625,27.3125 c -0.44734,0 -16.12918,15.300852 -47.34375,46.218754 l -15.21875,15.09375 0.0312,29.37499 c 0.0377,31.75398 0.36308,66.92855 0.625,67.75001 0.13326,0.41796 0.90977,0.48095 4.40625,0.28125 15.94459,-0.91066 31.81221,-6.10553 44.6875,-14.59375 21.08231,-13.89882 35.33345,-35.31501 40.3125,-60.62501 1.53799,-7.81867 1.53577,-25.6791 0,-32.84374 -2.9095,-13.573533 -7.07917,-24.035521 -13.4687,-33.781254 -4.3742,-6.671835 -12.85079,-16.875 -14.03125,-16.875 z"
       style="fill:#000000;display:inline;filter:url(#filter7142)" />
  </g>
  <g
     inkscape:groupmode="layer"
     id="layer11"
     inkscape:label="logo BW"
     style="display:none">
    <path
       style="fill:#000000;display:inline"
       d="m 144.60365,21.724246 c -4.56071,-4.89e-4 -9.04334,0.134923 -11.46875,0.375 -43.236301,4.279706 -80.892681,30.210123 -100.156241,68.96875 -6.37233,12.821224 -10.19917,25.395784 -12.25001,40.312494 -0.9019,6.5603 -0.90092,25.05729 0,30.96875 2.50106,16.41081 6.21225,28.37756 12.81251,41.34376 14.27508,28.04344 39.25906,50.10752 68.781251,60.78125 10.6616,3.8547 24.08782,6.67315 34.68749,7.25 3.38825,0.1844 109.90135,-0.1675 123.46875,-0.40625 l 13.46875,-0.21875 -20.375,-18.8125 C 242.35974,241.95162 230.59108,231.10873 227.41615,228.193 l -5.78125,-5.28125 -39.9375,-0.21875 c -41.06459,-0.20029 -44.93071,-0.33187 -51.9375,-1.75 -7.17979,-1.45315 -17.30008,-5.39726 -23.81249,-9.3125 -12.998071,-7.81439 -24.040501,-20.44335 -30.281251,-34.625 -2.06763,-4.69852 -3.90628,-10.43325 -5,-15.56251 -1.273,-5.96996 -1.66556,-20.03183 -0.71875,-26.25 4.58643,-30.12169 25.61211,-54.36044 54.312491,-62.593744 7.09314,-2.034816 11.34622,-2.57459 20.21875,-2.59375 7.75545,-0.01675 11.86589,0.318558 15.8125,1.3125 1.70837,0.430248 -0.78902,2.738287 21.375,-19.78125 9.19889,-9.346439 16.71875,-17.238724 16.71875,-17.53125 0,-0.658263 -7.06015,-3.704747 -13.65625,-5.90625 -9.33245,-3.114788 -19.01892,-5.179895 -28.21875,-6 -2.69935,-0.240621 -7.34554,-0.374511 -11.90625,-0.375 z m 78.40625,27.3125 c -0.44734,0 -16.12918,15.300852 -47.34375,46.21875 l -15.21875,15.093754 0.0312,29.37499 c 0.0377,31.75398 0.36308,66.92855 0.625,67.75001 0.13326,0.41796 0.90977,0.48095 4.40625,0.28125 15.94459,-0.91066 31.81221,-6.10553 44.6875,-14.59375 21.08231,-13.89882 35.33345,-35.31501 40.3125,-60.62501 1.53799,-7.81867 1.53577,-25.6791 0,-32.84374 -2.9095,-13.573533 -7.07917,-24.035521 -13.4687,-33.781254 -4.3742,-6.671835 -12.85079,-16.875 -14.03125,-16.875 z"
       id="path3265-9"
       inkscape:connector-curvature="0" />
  </g>
  <g
     style="display:inline"
     inkscape:label="logo color"
     id="g7146"
     inkscape:groupmode="layer">
    <path
       inkscape:connector-curvature="0"
       id="path7148"
       d="m 144.60365,21.724246 c -4.56071,-4.89e-4 -9.04334,0.134923 -11.46875,0.375 -43.236301,4.279706 -80.892681,30.210123 -100.156241,68.96875 -6.37233,12.821224 -10.19917,25.395784 -12.25001,40.312494 -0.9019,6.5603 -0.90092,25.05729 0,30.96875 2.50106,16.41081 6.21225,28.37756 12.81251,41.34376 14.27508,28.04344 39.25906,50.10752 68.781251,60.78125 10.6616,3.8547 24.08782,6.67315 34.68749,7.25 3.38825,0.1844 109.90135,-0.1675 123.46875,-0.40625 l 13.46875,-0.21875 -20.375,-18.8125 C 242.35974,241.95162 230.59108,231.10873 227.41615,228.193 l -5.78125,-5.28125 -39.9375,-0.21875 c -41.06459,-0.20029 -44.93071,-0.33187 -51.9375,-1.75 -7.17979,-1.45315 -17.30008,-5.39726 -23.81249,-9.3125 -12.998071,-7.81439 -24.040501,-20.44335 -30.281251,-34.625 -2.06763,-4.69852 -3.90628,-10.43325 -5,-15.56251 -1.273,-5.96996 -1.66556,-20.03183 -0.71875,-26.25 4.58643,-30.12169 25.61211,-54.36044 54.312491,-62.593744 7.09314,-2.034816 11.34622,-2.57459 20.21875,-2.59375 7.75545,-0.01675 11.86589,0.318558 15.8125,1.3125 1.70837,0.430248 -0.78902,2.738287 21.375,-19.78125 9.19889,-9.346439 16.71875,-17.238724 16.71875,-17.53125 0,-0.658263 -7.06015,-3.704747 -13.65625,-5.90625 -9.33245,-3.114788 -19.01892,-5.179895 -28.21875,-6 -2.69935,-0.240621 -7.34554,-0.374511 -11.90625,-0.375 z m 78.40625,27.3125 c -0.44734,0 -16.12918,15.300852 -47.34375,46.21875 l -15.21875,15.093754 0.0312,29.37499 c 0.0377,31.75398 0.36308,66.92855 0.625,67.75001 0.13326,0.41796 0.90977,0.48095 4.40625,0.28125 15.94459,-0.91066 31.81221,-6.10553 44.6875,-14.59375 21.08231,-13.89882 35.33345,-35.31501 40.3125,-60.62501 1.53799,-7.81867 1.53577,-25.6791 0,-32.84374 -2.9095,-13.573533 -7.07917,-24.035521 -13.4687,-33.781254 -4.3742,-6.671835 -12.85079,-16.875 -14.03125,-16.875 z"
       style="fill:url(#linearGradient7156);fill-opacity:1;display:inline" />
  </g>
</svg>
